<?xml version="1.0" encoding="UTF-8" standalone="no"?><!DOCTYPE svg PUBLIC "-//W3C//DTD SVG 1.1//EN" "http://www.w3.org/Graphics/SVG/1.1/DTD/svg11.dtd"><svg width="100%" height="100%" viewBox="0 0 14 14" version="1.1" xmlns="http://www.w3.org/2000/svg" xmlns:xlink="http://www.w3.org/1999/xlink" xml:space="preserve" xmlns:serif="http://www.serif.com/" style="fill-rule:evenodd;clip-rule:evenodd;stroke-linejoin:round;stroke-miterlimit:2;"><g><circle cx="6.818" cy="7.148" r="6.698" style="fill:#89b34d;"/><g><path d="M10.468,6.983c0,-0.503 -0.408,-0.912 -0.912,-0.912l-5.476,0c-0.503,0 -0.912,0.409 -0.912,0.912l0,0.329c0,0.504 0.409,0.912 0.912,0.912l5.476,0c0.504,0 0.912,-0.408 0.912,-0.912l0,-0.329Z" style="fill:#ebebeb;"/><path d="M6.983,10.798c0.503,-0 0.912,-0.409 0.912,-0.912l-0,-5.476c-0,-0.503 -0.409,-0.912 -0.912,-0.912l-0.329,-0c-0.504,-0 -0.912,0.409 -0.912,0.912l-0,5.476c-0,0.503 0.408,0.912 0.912,0.912l0.329,-0Z" style="fill:#ebebeb;"/></g></g></svg>